<mxfile host="app.diagrams.net" agent="Mozilla/5.0 (X11; Linux x86_64) AppleWebKit/537.36 (KHTML, like Gecko) Chrome/102.0.5005.200 Safari/537.36 Qaxbrowser" version="25.0.3">
  <diagram name="第 1 页" id="pcwymOc1bE3saNuNG9ub">
    <mxGraphModel dx="1969" dy="3236" grid="0" gridSize="10" guides="1" tooltips="0" connect="1" arrows="1" fold="1" page="1" pageScale="1" pageWidth="827" pageHeight="1169" math="0" shadow="0">
      <root>
        <mxCell id="0" />
        <mxCell id="1" parent="0" />
        <mxCell id="37u12dnWiprPjVDMAY1a-91" value="" style="whiteSpace=wrap;html=1;aspect=fixed;" vertex="1" parent="1">
          <mxGeometry x="1268" y="-2108" width="390" height="390" as="geometry" />
        </mxCell>
        <mxCell id="37u12dnWiprPjVDMAY1a-90" value="" style="whiteSpace=wrap;html=1;aspect=fixed;" vertex="1" parent="1">
          <mxGeometry x="803" y="-2108" width="390" height="390" as="geometry" />
        </mxCell>
        <mxCell id="37u12dnWiprPjVDMAY1a-33" value="" style="rounded=0;whiteSpace=wrap;html=1;" vertex="1" parent="1">
          <mxGeometry x="807" y="-2010" width="380" height="82" as="geometry" />
        </mxCell>
        <mxCell id="ju3h4By6nS4EC_TViVJi-98" value="域名系统" style="rounded=1;whiteSpace=wrap;html=1;" parent="1" vertex="1">
          <mxGeometry x="1136.5000000000002" y="-2318" width="120" height="60" as="geometry" />
        </mxCell>
        <mxCell id="37u12dnWiprPjVDMAY1a-1" value="LB" style="rounded=0;whiteSpace=wrap;html=1;" vertex="1" parent="1">
          <mxGeometry x="905" y="-2188" width="120" height="40" as="geometry" />
        </mxCell>
        <mxCell id="37u12dnWiprPjVDMAY1a-3" value="" style="endArrow=none;html=1;rounded=0;" edge="1" parent="1">
          <mxGeometry width="50" height="50" relative="1" as="geometry">
            <mxPoint x="1191.91" y="-2218" as="sourcePoint" />
            <mxPoint x="1191.41" y="-2258" as="targetPoint" />
          </mxGeometry>
        </mxCell>
        <mxCell id="37u12dnWiprPjVDMAY1a-4" value="" style="endArrow=none;html=1;rounded=0;" edge="1" parent="1">
          <mxGeometry width="50" height="50" relative="1" as="geometry">
            <mxPoint x="965" y="-2218" as="sourcePoint" />
            <mxPoint x="1443" y="-2218" as="targetPoint" />
          </mxGeometry>
        </mxCell>
        <mxCell id="37u12dnWiprPjVDMAY1a-5" value="" style="endArrow=classic;html=1;rounded=0;" edge="1" parent="1">
          <mxGeometry width="50" height="50" relative="1" as="geometry">
            <mxPoint x="964.6599999999999" y="-2218" as="sourcePoint" />
            <mxPoint x="965" y="-2188" as="targetPoint" />
          </mxGeometry>
        </mxCell>
        <mxCell id="37u12dnWiprPjVDMAY1a-6" value="" style="endArrow=classic;html=1;rounded=0;" edge="1" parent="1">
          <mxGeometry width="50" height="50" relative="1" as="geometry">
            <mxPoint x="1441.75" y="-2218" as="sourcePoint" />
            <mxPoint x="1442.09" y="-2188" as="targetPoint" />
          </mxGeometry>
        </mxCell>
        <mxCell id="37u12dnWiprPjVDMAY1a-8" value="APP" style="rounded=0;whiteSpace=wrap;html=1;" vertex="1" parent="1">
          <mxGeometry x="825.25" y="-1998" width="70.5" height="27" as="geometry" />
        </mxCell>
        <mxCell id="37u12dnWiprPjVDMAY1a-18" value="管控" style="rounded=0;whiteSpace=wrap;html=1;" vertex="1" parent="1">
          <mxGeometry x="825.25" y="-1971" width="70.5" height="27" as="geometry" />
        </mxCell>
        <mxCell id="37u12dnWiprPjVDMAY1a-19" value="APP" style="rounded=0;whiteSpace=wrap;html=1;" vertex="1" parent="1">
          <mxGeometry x="1091.5" y="-1998" width="70.5" height="27" as="geometry" />
        </mxCell>
        <mxCell id="37u12dnWiprPjVDMAY1a-20" value="仓库" style="rounded=0;whiteSpace=wrap;html=1;" vertex="1" parent="1">
          <mxGeometry x="1091.5" y="-1971" width="70.5" height="27" as="geometry" />
        </mxCell>
        <mxCell id="37u12dnWiprPjVDMAY1a-25" value="APP" style="rounded=0;whiteSpace=wrap;html=1;" vertex="1" parent="1">
          <mxGeometry x="1006.25" y="-1998" width="70.5" height="27" as="geometry" />
        </mxCell>
        <mxCell id="37u12dnWiprPjVDMAY1a-26" value="更新" style="rounded=0;whiteSpace=wrap;html=1;" vertex="1" parent="1">
          <mxGeometry x="1006.25" y="-1971" width="70.5" height="27" as="geometry" />
        </mxCell>
        <mxCell id="37u12dnWiprPjVDMAY1a-28" value="APP" style="rounded=0;whiteSpace=wrap;html=1;" vertex="1" parent="1">
          <mxGeometry x="914.75" y="-1998" width="70.5" height="27" as="geometry" />
        </mxCell>
        <mxCell id="37u12dnWiprPjVDMAY1a-29" value="商店" style="rounded=0;whiteSpace=wrap;html=1;" vertex="1" parent="1">
          <mxGeometry x="914.75" y="-1971" width="70.5" height="27" as="geometry" />
        </mxCell>
        <mxCell id="37u12dnWiprPjVDMAY1a-34" value="kylinsearch" style="shape=cylinder3;whiteSpace=wrap;html=1;boundedLbl=1;backgroundOutline=1;size=15;" vertex="1" parent="1">
          <mxGeometry x="1032.8799999999999" y="-1888" width="90" height="70" as="geometry" />
        </mxCell>
        <mxCell id="37u12dnWiprPjVDMAY1a-35" value="minio" style="shape=cylinder3;whiteSpace=wrap;html=1;boundedLbl=1;backgroundOutline=1;size=15;rotation=0;direction=south;" vertex="1" parent="1">
          <mxGeometry x="1031.88" y="-1788" width="97.12" height="60" as="geometry" />
        </mxCell>
        <mxCell id="37u12dnWiprPjVDMAY1a-36" value="" style="endArrow=classic;html=1;rounded=0;" edge="1" parent="1">
          <mxGeometry width="50" height="50" relative="1" as="geometry">
            <mxPoint x="967" y="-1438" as="sourcePoint" />
            <mxPoint x="967" y="-1928" as="targetPoint" />
          </mxGeometry>
        </mxCell>
        <mxCell id="37u12dnWiprPjVDMAY1a-39" value="" style="endArrow=classic;html=1;rounded=0;" edge="1" parent="1">
          <mxGeometry width="50" height="50" relative="1" as="geometry">
            <mxPoint x="968.5" y="-1758.34" as="sourcePoint" />
            <mxPoint x="1028.5" y="-1758.34" as="targetPoint" />
          </mxGeometry>
        </mxCell>
        <mxCell id="37u12dnWiprPjVDMAY1a-40" value="" style="endArrow=classic;html=1;rounded=0;" edge="1" parent="1">
          <mxGeometry width="50" height="50" relative="1" as="geometry">
            <mxPoint x="968.5" y="-1853.34" as="sourcePoint" />
            <mxPoint x="1028.5" y="-1853.34" as="targetPoint" />
          </mxGeometry>
        </mxCell>
        <mxCell id="37u12dnWiprPjVDMAY1a-42" value="" style="endArrow=classic;startArrow=classic;html=1;rounded=0;" edge="1" parent="1">
          <mxGeometry width="50" height="50" relative="1" as="geometry">
            <mxPoint x="973" y="-2008" as="sourcePoint" />
            <mxPoint x="973" y="-2044.17" as="targetPoint" />
          </mxGeometry>
        </mxCell>
        <mxCell id="37u12dnWiprPjVDMAY1a-43" value="" style="endArrow=classic;html=1;rounded=0;exitX=0.517;exitY=1.024;exitDx=0;exitDy=0;exitPerimeter=0;" edge="1" parent="1" source="37u12dnWiprPjVDMAY1a-1">
          <mxGeometry width="50" height="50" relative="1" as="geometry">
            <mxPoint x="968.75" y="-2148" as="sourcePoint" />
            <mxPoint x="967.25" y="-2118" as="targetPoint" />
          </mxGeometry>
        </mxCell>
        <mxCell id="37u12dnWiprPjVDMAY1a-45" value="" style="rounded=0;whiteSpace=wrap;html=1;" vertex="1" parent="1">
          <mxGeometry x="1273.75" y="-2008" width="380" height="82" as="geometry" />
        </mxCell>
        <mxCell id="37u12dnWiprPjVDMAY1a-46" value="APP" style="rounded=0;whiteSpace=wrap;html=1;" vertex="1" parent="1">
          <mxGeometry x="1292" y="-1996" width="70.5" height="27" as="geometry" />
        </mxCell>
        <mxCell id="37u12dnWiprPjVDMAY1a-47" value="管控" style="rounded=0;whiteSpace=wrap;html=1;" vertex="1" parent="1">
          <mxGeometry x="1292" y="-1969" width="70.5" height="27" as="geometry" />
        </mxCell>
        <mxCell id="37u12dnWiprPjVDMAY1a-48" value="APP" style="rounded=0;whiteSpace=wrap;html=1;" vertex="1" parent="1">
          <mxGeometry x="1558.25" y="-1996" width="70.5" height="27" as="geometry" />
        </mxCell>
        <mxCell id="37u12dnWiprPjVDMAY1a-49" value="仓库" style="rounded=0;whiteSpace=wrap;html=1;" vertex="1" parent="1">
          <mxGeometry x="1558.25" y="-1969" width="70.5" height="27" as="geometry" />
        </mxCell>
        <mxCell id="37u12dnWiprPjVDMAY1a-50" value="APP" style="rounded=0;whiteSpace=wrap;html=1;" vertex="1" parent="1">
          <mxGeometry x="1473" y="-1996" width="70.5" height="27" as="geometry" />
        </mxCell>
        <mxCell id="37u12dnWiprPjVDMAY1a-51" value="更新" style="rounded=0;whiteSpace=wrap;html=1;" vertex="1" parent="1">
          <mxGeometry x="1473" y="-1969" width="70.5" height="27" as="geometry" />
        </mxCell>
        <mxCell id="37u12dnWiprPjVDMAY1a-52" value="APP" style="rounded=0;whiteSpace=wrap;html=1;" vertex="1" parent="1">
          <mxGeometry x="1381.5" y="-1996" width="70.5" height="27" as="geometry" />
        </mxCell>
        <mxCell id="37u12dnWiprPjVDMAY1a-53" value="商店" style="rounded=0;whiteSpace=wrap;html=1;" vertex="1" parent="1">
          <mxGeometry x="1381.5" y="-1969" width="70.5" height="27" as="geometry" />
        </mxCell>
        <mxCell id="37u12dnWiprPjVDMAY1a-55" value="kylinsearch" style="shape=cylinder3;whiteSpace=wrap;html=1;boundedLbl=1;backgroundOutline=1;size=15;" vertex="1" parent="1">
          <mxGeometry x="1325.5" y="-1888" width="90" height="70" as="geometry" />
        </mxCell>
        <mxCell id="37u12dnWiprPjVDMAY1a-56" value="minio" style="shape=cylinder3;whiteSpace=wrap;html=1;boundedLbl=1;backgroundOutline=1;size=15;rotation=1;direction=south;" vertex="1" parent="1">
          <mxGeometry x="1326.44" y="-1788" width="97.12" height="60" as="geometry" />
        </mxCell>
        <mxCell id="37u12dnWiprPjVDMAY1a-57" value="" style="endArrow=classic;html=1;rounded=0;" edge="1" parent="1">
          <mxGeometry width="50" height="50" relative="1" as="geometry">
            <mxPoint x="1479" y="-1438" as="sourcePoint" />
            <mxPoint x="1478.75" y="-1926" as="targetPoint" />
          </mxGeometry>
        </mxCell>
        <mxCell id="37u12dnWiprPjVDMAY1a-60" value="" style="endArrow=classic;startArrow=classic;html=1;rounded=0;" edge="1" parent="1">
          <mxGeometry width="50" height="50" relative="1" as="geometry">
            <mxPoint x="1439.75" y="-2006" as="sourcePoint" />
            <mxPoint x="1439.75" y="-2042.17" as="targetPoint" />
          </mxGeometry>
        </mxCell>
        <mxCell id="37u12dnWiprPjVDMAY1a-62" value="LB" style="rounded=0;whiteSpace=wrap;html=1;" vertex="1" parent="1">
          <mxGeometry x="1381.5" y="-2188" width="120" height="40" as="geometry" />
        </mxCell>
        <mxCell id="37u12dnWiprPjVDMAY1a-63" value="" style="endArrow=classic;html=1;rounded=0;exitX=0.517;exitY=1.024;exitDx=0;exitDy=0;exitPerimeter=0;" edge="1" parent="1">
          <mxGeometry width="50" height="50" relative="1" as="geometry">
            <mxPoint x="1450.82" y="-2148" as="sourcePoint" />
            <mxPoint x="1451.07" y="-2119" as="targetPoint" />
          </mxGeometry>
        </mxCell>
        <mxCell id="37u12dnWiprPjVDMAY1a-64" value="" style="endArrow=classic;html=1;rounded=0;entryX=1;entryY=0.5;entryDx=0;entryDy=0;entryPerimeter=0;" edge="1" parent="1" target="37u12dnWiprPjVDMAY1a-55">
          <mxGeometry width="50" height="50" relative="1" as="geometry">
            <mxPoint x="1479.75" y="-1853.59" as="sourcePoint" />
            <mxPoint x="1409.75" y="-1853.59" as="targetPoint" />
          </mxGeometry>
        </mxCell>
        <mxCell id="37u12dnWiprPjVDMAY1a-65" value="" style="endArrow=classic;html=1;rounded=0;" edge="1" parent="1">
          <mxGeometry width="50" height="50" relative="1" as="geometry">
            <mxPoint x="1483" y="-1758" as="sourcePoint" />
            <mxPoint x="1423.56" y="-1758.34" as="targetPoint" />
          </mxGeometry>
        </mxCell>
        <mxCell id="37u12dnWiprPjVDMAY1a-66" value="mysql" style="shape=cylinder3;whiteSpace=wrap;html=1;boundedLbl=1;backgroundOutline=1;size=15;" vertex="1" parent="1">
          <mxGeometry x="1196.5" y="-1682.17" width="76.5" height="77.17" as="geometry" />
        </mxCell>
        <mxCell id="37u12dnWiprPjVDMAY1a-67" value="redis" style="shape=cylinder3;whiteSpace=wrap;html=1;boundedLbl=1;backgroundOutline=1;size=15;" vertex="1" parent="1">
          <mxGeometry x="1195" y="-1585" width="76.5" height="77.17" as="geometry" />
        </mxCell>
        <mxCell id="37u12dnWiprPjVDMAY1a-68" value="" style="shape=cylinder3;whiteSpace=wrap;html=1;boundedLbl=1;backgroundOutline=1;size=15;rotation=90;" vertex="1" parent="1">
          <mxGeometry x="1213" y="-1494.17" width="60" height="100" as="geometry" />
        </mxCell>
        <mxCell id="37u12dnWiprPjVDMAY1a-69" value="glusterfs" style="text;html=1;align=center;verticalAlign=middle;whiteSpace=wrap;rounded=0;" vertex="1" parent="1">
          <mxGeometry x="1203" y="-1453" width="60" height="30" as="geometry" />
        </mxCell>
        <mxCell id="37u12dnWiprPjVDMAY1a-72" value="" style="endArrow=classic;html=1;rounded=0;entryX=0.653;entryY=1;entryDx=0;entryDy=0;entryPerimeter=0;" edge="1" parent="1">
          <mxGeometry width="50" height="50" relative="1" as="geometry">
            <mxPoint x="965.5" y="-1438.3400000000001" as="sourcePoint" />
            <mxPoint x="1190.5" y="-1438.3400000000001" as="targetPoint" />
          </mxGeometry>
        </mxCell>
        <mxCell id="37u12dnWiprPjVDMAY1a-73" value="" style="endArrow=classic;html=1;rounded=0;entryX=0.653;entryY=1;entryDx=0;entryDy=0;entryPerimeter=0;" edge="1" parent="1">
          <mxGeometry width="50" height="50" relative="1" as="geometry">
            <mxPoint x="970" y="-1546.7600000000002" as="sourcePoint" />
            <mxPoint x="1195" y="-1546.7600000000002" as="targetPoint" />
          </mxGeometry>
        </mxCell>
        <mxCell id="37u12dnWiprPjVDMAY1a-74" value="" style="endArrow=classic;html=1;rounded=0;entryX=0.653;entryY=1;entryDx=0;entryDy=0;entryPerimeter=0;" edge="1" parent="1">
          <mxGeometry width="50" height="50" relative="1" as="geometry">
            <mxPoint x="970" y="-1643" as="sourcePoint" />
            <mxPoint x="1195" y="-1643" as="targetPoint" />
          </mxGeometry>
        </mxCell>
        <mxCell id="37u12dnWiprPjVDMAY1a-76" value="" style="endArrow=classic;html=1;rounded=0;" edge="1" parent="1">
          <mxGeometry width="50" height="50" relative="1" as="geometry">
            <mxPoint x="1481" y="-1439" as="sourcePoint" />
            <mxPoint x="1291" y="-1439" as="targetPoint" />
          </mxGeometry>
        </mxCell>
        <mxCell id="37u12dnWiprPjVDMAY1a-77" value="" style="endArrow=classic;html=1;rounded=0;" edge="1" parent="1">
          <mxGeometry width="50" height="50" relative="1" as="geometry">
            <mxPoint x="1479" y="-1546.76" as="sourcePoint" />
            <mxPoint x="1273" y="-1547" as="targetPoint" />
          </mxGeometry>
        </mxCell>
        <mxCell id="37u12dnWiprPjVDMAY1a-78" value="" style="endArrow=classic;html=1;rounded=0;" edge="1" parent="1">
          <mxGeometry width="50" height="50" relative="1" as="geometry">
            <mxPoint x="1479.75" y="-1643.76" as="sourcePoint" />
            <mxPoint x="1273.75" y="-1644" as="targetPoint" />
          </mxGeometry>
        </mxCell>
        <mxCell id="37u12dnWiprPjVDMAY1a-80" value="" style="endArrow=classic;startArrow=classic;html=1;rounded=0;" edge="1" parent="1">
          <mxGeometry width="50" height="50" relative="1" as="geometry">
            <mxPoint x="1137" y="-1855" as="sourcePoint" />
            <mxPoint x="1321" y="-1855" as="targetPoint" />
          </mxGeometry>
        </mxCell>
        <mxCell id="37u12dnWiprPjVDMAY1a-81" value="双向同步" style="edgeLabel;html=1;align=center;verticalAlign=middle;resizable=0;points=[];" vertex="1" connectable="0" parent="37u12dnWiprPjVDMAY1a-80">
          <mxGeometry x="-0.3028" y="5" relative="1" as="geometry">
            <mxPoint x="21" as="offset" />
          </mxGeometry>
        </mxCell>
        <mxCell id="37u12dnWiprPjVDMAY1a-88" value="" style="endArrow=classic;startArrow=classic;html=1;rounded=0;" edge="1" parent="1">
          <mxGeometry width="50" height="50" relative="1" as="geometry">
            <mxPoint x="1141" y="-1758.71" as="sourcePoint" />
            <mxPoint x="1325" y="-1758.71" as="targetPoint" />
          </mxGeometry>
        </mxCell>
        <mxCell id="37u12dnWiprPjVDMAY1a-89" value="双向同步" style="edgeLabel;html=1;align=center;verticalAlign=middle;resizable=0;points=[];" vertex="1" connectable="0" parent="37u12dnWiprPjVDMAY1a-88">
          <mxGeometry x="-0.3028" y="5" relative="1" as="geometry">
            <mxPoint x="21" as="offset" />
          </mxGeometry>
        </mxCell>
        <mxCell id="37u12dnWiprPjVDMAY1a-92" value="园区A" style="text;html=1;align=center;verticalAlign=middle;whiteSpace=wrap;rounded=0;" vertex="1" parent="1">
          <mxGeometry x="811" y="-2105" width="60" height="30" as="geometry" />
        </mxCell>
        <mxCell id="37u12dnWiprPjVDMAY1a-93" value="园区B" style="text;html=1;align=center;verticalAlign=middle;whiteSpace=wrap;rounded=0;" vertex="1" parent="1">
          <mxGeometry x="1266.44" y="-2103" width="60" height="30" as="geometry" />
        </mxCell>
        <mxCell id="37u12dnWiprPjVDMAY1a-94" value="" style="shape=image;verticalLabelPosition=bottom;labelBackgroundColor=default;verticalAlign=top;aspect=fixed;imageAspect=0;image=data:image/png,iVBORw0KGgoAAAANSUhEUgAAAIQAAAAtCAIAAADgNVTWAAAACXBIWXMAAA7EAAAOxAGVKw4bAAAI/UlEQVR4nO1bb2xT1xU/JgnkTwnBwXEetJ0NHUiUoWFvqZi25VlUrOp7JQaq9Mu2xNvLmM20D5uGJtHn2HjTJjHtwzQllXLbmA32BTLnw3vLyqrZ0LWQpLa0isGUjtowwQvEhJJgO8H/9uFuLy/vPTtxcBJP8U9XkXXO/XPePfece+65N5psNgtllAbWrbYAZcyhrIwSQlkZJYSyMkoIZWWUEMrKKCGUlVFCqFxaM+thqyAIUgpBEL09vQRBFEOqNYqlKKMP9QmCwFDVUiL/UYLjuS6mq0iCrUUUrAxBEBBCXYcav2uZnsfQZBBCNEWXjWPJKHjP4HgOAOSaAGAOzBBN9Zi7ijhx4kR7e3t7e/vqirE0FKYMbBbMqxtUuZQ5hhCS7SXLh9nZ2dnZWSX9/PnzV69elRHj8Xg8Hl8RuZaOnG4qFArJKARB4IVPmVMAFcomzMEKNJT2eDw9PT3K5iaT6amlnUM0GtXpdABw4cKFo0eP5q98//59vV4PAD6fz2q1FlGM4kJdGaFQyO6wy4gEQbhdbp4b5EfuMa/UKFuhPycAKliWdTgcwVBQxmVZlqbooggNABqNBv8oKOucyWSKJcByQF0ZpzyndE2bjp/8gkj55Mbkubeuj4yOULQVIUS1pAntPOMQJtPo3QqGYTieC4aCv92bJiTO7Od3NiOEzCZzsbZ3jUaD1/gilXHkyBH4f1QGjlx/+Ka5UTe3/Bt1226PpRFCg75Bnufe/svEm2/Ma4UupglCT1O09bDVtLV+36ZHUu7JbQ9/EK4oYuyr1Wp9Pt8iKzc1NQ0MDBRl3GWFXBl4i257w/T53VoZ60Cbbux6lOM5iqIRQkJ0tllShR+pZJjX8KZycttDWWjQXL2O0pdj3wUgj6Y4ntM3a19ua1RWbdTVtHytWZzQu4+3hm7PFbPJTFM0Qoh5cVNztUqQZtN+tlW7sdDYNxKJBAKBSCRSUKuSwuKFl88az/PpTPLBREK1tnFXNQAEQ0En62S6js0rDIOD2sz0ZK7BsrMzPM8vRqxAIGCxWDQajdFotFgs+K/X65XWsVgsSqIqYrFYS0tLS0vL2bNnpXSbzWaxWFwul2or1f4xEf/2er1Go1HzP9hsNum822w2TMd1ZFxVyN2Uk3XaHfbhy3dfPbpDWfs3PwuaTWazyWw9rBIgDvoGaYoeev89Sh9TGsfbtzJCLNl72plfIPwZyinG9tHZ2SmlAEBHR8eCHQLA6Oiokoj7NBgMqk1w/62trUpiJBKx2Wz4twiv1xsIBPx+PwBYLBbZ1IvcXMOB0jJMJhNN0UMDnyqN408DNwGAZVmEEFFf/4fplLQQz2xECDEMA9Ub+XvyYcZnMu/crjCbzAueNlwuF9aEwWDw+/3ZbDabzYbDYb/fv8h5XwFYLJZAINDZ2RkOh7GE3d3dABCJRNxuNzYCkRsOh/Eawi43T7cqzp1hGILQj1welxIfTCSGBj5lGAYAOJ77xlRcn9FIy8HPpjmeEwSBOtT2zu2K8Zl5QSRWD8uy+T8SfwwAkCQZDodJksR0g8FAkmQuf7LyiEQifr+/v79fXOYulwvPuGgBItdgMIi/z5w5k6dbldCWIAiKeg0hNPL++Hx6cxfT5XA4iNq6bwlTslbfjqUvNj9zynOqt6eX5/mjowJRN9e5EEsxDLNgHIU1AQDY2IuOYr1L6u7uFheKiNbWVmzT/f39Sm5HR4fb7c5vGeqHPtXTgNlk7kN9wVDw149TABplhZ9MTP8okeB4TtzMF+xTBtFBLVhzdaEqoUjMz82DnLkp5SoWKc05lpdIN5vMsnTIVmLrgqKIO17p7A0rjJy5KY/HIyPiuzye539VET09OaNs9fuNG4hmXRfTpbwHBACGYfIbh6gMpY2vEagrw+6wb9bVksdrRcq9T2Y/PCdwPEdRFELoYlX2YHKep/p7RXYI0gxN42zK/s+9XltVL3KFzMc8zy/y+L18R7wSf8uqEk31oT4AII/X1mkrxbL9pbq9X507fv9uU829dfM+7HRDNUEQ+BD+bNP2xtpna6rqxUKs25t8ks5//BYN4tKlS0X7vqfGSm5gcmXg3NRX2p6r08qNZsfLqS36Bo7nnKxTSCZ/3FD9Te0GsQiplJN14uneVU/K2tZU1T/XsHvBqyf85V6vd2XyH3g41bHyhz3LBPmMI4S2NDVsP5BUVq3TVhq/rEEI0T6aZVnltBIEgRDat4OskTgoEdvWf/FWwzWEUJ7TBo7/AMDr9a7AqUJUhvIcviobmNwygqFgKjMbm0yp1q7aNAMAgiAIgjAujEsLQRBYPbEp9bwWACSfpJWXTlK4XC48KW632+VyKTMKi/iifJDtGdJjs5SOsx0AQJLkaropJ+tcX1l3c1j9uvjDc9NmkxkAEEIcz/3tyohYPB7PXeEuTdFjE8OJpPxICABj0SvT8YdOdoHcVHd3t6gPnB/EMBqNeIKKCIPBgPWBU342m83lcuGxcIX+/v7ijpgfcjdlMpkO0VaE0I6XamXbxsdDUwDAsqzdYd+4Wae3/FTKTf31lwght8s9OvrRvx/9Y+eW/VJuIjk1NjG8mNxUZ2cnSZI4vbNgMufpgXMYbrc7EolILY8kSWm2Y2WgUUZ7giB833GM2Jd48ZW50DY2mfK5ojg3hRDa9nV7zZYXpK0S0X/dudwrVjjwwnekO8dY9MrYxPDw1eGChAsEAoFAAM+I0mNgJyYjXrt2Df/Ys2ePkr5+/fqdO3cqBxK1jvskSTLXVoGr5eKqiiSyxM5V24KqMgCgD/UhhGREgmju7XnLetja9Pyu+i99T9nqyT//ePv6B4O+QbvDvoRDXxmF5aZw5Fqz+3XVVprnSbj+wdPkptY4cuamVOcOx0KJ6M2q5+U35ACQiv/3jq+IT3LWFNTdVB5YD1sfxZO6/ceqauX6uPPeLxrqqgZ9g8UTb22h4Le2TtZZt6Hy8S35LebDG+8mpqILRq5l5EHBr9BNJlPbIRohVK2buyRPxh8+uHGRpujivuFcayjYTQGOfe328XH5Fl1o5FqGDEtRBuR4Fl1+nfaUWKIyylgOlP/BsoTwH0fyZ30h2isDAAAAAElFTkSuQmCC;" vertex="1" parent="1">
          <mxGeometry x="907.9970588235293" y="-2096.503529411765" width="132" height="45" as="geometry" />
        </mxCell>
        <mxCell id="37u12dnWiprPjVDMAY1a-95" value="" style="shape=image;verticalLabelPosition=bottom;labelBackgroundColor=default;verticalAlign=top;aspect=fixed;imageAspect=0;image=data:image/png,iVBORw0KGgoAAAANSUhEUgAAAIQAAAAtCAIAAADgNVTWAAAACXBIWXMAAA7EAAAOxAGVKw4bAAAI/UlEQVR4nO1bb2xT1xU/JgnkTwnBwXEetJ0NHUiUoWFvqZi25VlUrOp7JQaq9Mu2xNvLmM20D5uGJtHn2HjTJjHtwzQllXLbmA32BTLnw3vLyqrZ0LWQpLa0isGUjtowwQvEhJJgO8H/9uFuLy/vPTtxcBJP8U9XkXXO/XPePfece+65N5psNgtllAbWrbYAZcyhrIwSQlkZJYSyMkoIZWWUEMrKKCGUlVFCqFxaM+thqyAIUgpBEL09vQRBFEOqNYqlKKMP9QmCwFDVUiL/UYLjuS6mq0iCrUUUrAxBEBBCXYcav2uZnsfQZBBCNEWXjWPJKHjP4HgOAOSaAGAOzBBN9Zi7ijhx4kR7e3t7e/vqirE0FKYMbBbMqxtUuZQ5hhCS7SXLh9nZ2dnZWSX9/PnzV69elRHj8Xg8Hl8RuZaOnG4qFArJKARB4IVPmVMAFcomzMEKNJT2eDw9PT3K5iaT6amlnUM0GtXpdABw4cKFo0eP5q98//59vV4PAD6fz2q1FlGM4kJdGaFQyO6wy4gEQbhdbp4b5EfuMa/UKFuhPycAKliWdTgcwVBQxmVZlqbooggNABqNBv8oKOucyWSKJcByQF0ZpzyndE2bjp/8gkj55Mbkubeuj4yOULQVIUS1pAntPOMQJtPo3QqGYTieC4aCv92bJiTO7Od3NiOEzCZzsbZ3jUaD1/gilXHkyBH4f1QGjlx/+Ka5UTe3/Bt1226PpRFCg75Bnufe/svEm2/Ma4UupglCT1O09bDVtLV+36ZHUu7JbQ9/EK4oYuyr1Wp9Pt8iKzc1NQ0MDBRl3GWFXBl4i257w/T53VoZ60Cbbux6lOM5iqIRQkJ0tllShR+pZJjX8KZycttDWWjQXL2O0pdj3wUgj6Y4ntM3a19ua1RWbdTVtHytWZzQu4+3hm7PFbPJTFM0Qoh5cVNztUqQZtN+tlW7sdDYNxKJBAKBSCRSUKuSwuKFl88az/PpTPLBREK1tnFXNQAEQ0En62S6js0rDIOD2sz0ZK7BsrMzPM8vRqxAIGCxWDQajdFotFgs+K/X65XWsVgsSqIqYrFYS0tLS0vL2bNnpXSbzWaxWFwul2or1f4xEf/2er1Go1HzP9hsNum822w2TMd1ZFxVyN2Uk3XaHfbhy3dfPbpDWfs3PwuaTWazyWw9rBIgDvoGaYoeev89Sh9TGsfbtzJCLNl72plfIPwZyinG9tHZ2SmlAEBHR8eCHQLA6Oiokoj7NBgMqk1w/62trUpiJBKx2Wz4twiv1xsIBPx+PwBYLBbZ1IvcXMOB0jJMJhNN0UMDnyqN408DNwGAZVmEEFFf/4fplLQQz2xECDEMA9Ub+XvyYcZnMu/crjCbzAueNlwuF9aEwWDw+/3ZbDabzYbDYb/fv8h5XwFYLJZAINDZ2RkOh7GE3d3dABCJRNxuNzYCkRsOh/Eawi43T7cqzp1hGILQj1welxIfTCSGBj5lGAYAOJ77xlRcn9FIy8HPpjmeEwSBOtT2zu2K8Zl5QSRWD8uy+T8SfwwAkCQZDodJksR0g8FAkmQuf7LyiEQifr+/v79fXOYulwvPuGgBItdgMIi/z5w5k6dbldCWIAiKeg0hNPL++Hx6cxfT5XA4iNq6bwlTslbfjqUvNj9zynOqt6eX5/mjowJRN9e5EEsxDLNgHIU1AQDY2IuOYr1L6u7uFheKiNbWVmzT/f39Sm5HR4fb7c5vGeqHPtXTgNlk7kN9wVDw149TABplhZ9MTP8okeB4TtzMF+xTBtFBLVhzdaEqoUjMz82DnLkp5SoWKc05lpdIN5vMsnTIVmLrgqKIO17p7A0rjJy5KY/HIyPiuzye539VET09OaNs9fuNG4hmXRfTpbwHBACGYfIbh6gMpY2vEagrw+6wb9bVksdrRcq9T2Y/PCdwPEdRFELoYlX2YHKep/p7RXYI0gxN42zK/s+9XltVL3KFzMc8zy/y+L18R7wSf8uqEk31oT4AII/X1mkrxbL9pbq9X507fv9uU829dfM+7HRDNUEQ+BD+bNP2xtpna6rqxUKs25t8ks5//BYN4tKlS0X7vqfGSm5gcmXg3NRX2p6r08qNZsfLqS36Bo7nnKxTSCZ/3FD9Te0GsQiplJN14uneVU/K2tZU1T/XsHvBqyf85V6vd2XyH3g41bHyhz3LBPmMI4S2NDVsP5BUVq3TVhq/rEEI0T6aZVnltBIEgRDat4OskTgoEdvWf/FWwzWEUJ7TBo7/AMDr9a7AqUJUhvIcviobmNwygqFgKjMbm0yp1q7aNAMAgiAIgjAujEsLQRBYPbEp9bwWACSfpJWXTlK4XC48KW632+VyKTMKi/iifJDtGdJjs5SOsx0AQJLkaropJ+tcX1l3c1j9uvjDc9NmkxkAEEIcz/3tyohYPB7PXeEuTdFjE8OJpPxICABj0SvT8YdOdoHcVHd3t6gPnB/EMBqNeIKKCIPBgPWBU342m83lcuGxcIX+/v7ijpgfcjdlMpkO0VaE0I6XamXbxsdDUwDAsqzdYd+4Wae3/FTKTf31lwght8s9OvrRvx/9Y+eW/VJuIjk1NjG8mNxUZ2cnSZI4vbNgMufpgXMYbrc7EolILY8kSWm2Y2WgUUZ7giB833GM2Jd48ZW50DY2mfK5ojg3hRDa9nV7zZYXpK0S0X/dudwrVjjwwnekO8dY9MrYxPDw1eGChAsEAoFAAM+I0mNgJyYjXrt2Df/Ys2ePkr5+/fqdO3cqBxK1jvskSTLXVoGr5eKqiiSyxM5V24KqMgCgD/UhhGREgmju7XnLetja9Pyu+i99T9nqyT//ePv6B4O+QbvDvoRDXxmF5aZw5Fqz+3XVVprnSbj+wdPkptY4cuamVOcOx0KJ6M2q5+U35ACQiv/3jq+IT3LWFNTdVB5YD1sfxZO6/ceqauX6uPPeLxrqqgZ9g8UTb22h4Le2TtZZt6Hy8S35LebDG+8mpqILRq5l5EHBr9BNJlPbIRohVK2buyRPxh8+uHGRpujivuFcayjYTQGOfe328XH5Fl1o5FqGDEtRBuR4Fl1+nfaUWKIyylgOlP/BsoTwH0fyZ30h2isDAAAAAElFTkSuQmCC;" vertex="1" parent="1">
          <mxGeometry x="1369.4970588235292" y="-2095.503529411765" width="132" height="45" as="geometry" />
        </mxCell>
      </root>
    </mxGraphModel>
  </diagram>
</mxfile>
